<?xml version="1.0" standalone="no"?>
<!DOCTYPE svg PUBLIC "-//W3C//DTD SVG 20010904//EN"
 "http://www.w3.org/TR/2001/REC-SVG-20010904/DTD/svg10.dtd">
<svg version="1.0" xmlns="http://www.w3.org/2000/svg"
 width="1000.000000pt" height="1000.000000pt" viewBox="0 0 1000.000000 1000.000000"
 preserveAspectRatio="xMidYMid meet">
<metadata>
Created by potrace 1.11, written by Peter Selinger 2001-2013
</metadata>
<g transform="translate(0.000000,1000.000000) scale(0.100000,-0.100000)"
fill="#000000" stroke="none">
<path d="M290 4900 l0 -3380 1343 0 1344 0 1 1367 c0 753 1 1377 1 1388 1 14
307 -286 1019 -998 l1017 -1017 1015 1015 c558 558 1017 1015 1020 1015 3 0 4
-623 2 -1385 l-2 -1385 1345 0 1345 0 0 3380 0 3380 -1393 0 -1392 0 -971
-972 -971 -973 -972 973 -973 972 -1389 0 -1389 0 0 -3380z"/>
<path d="M3000 1065 l-24 -26 62 2 c37 1 62 6 62 13 0 8 3 8 8 0 9 -13 82 -15
82 -2 0 5 5 6 10 3 6 -3 10 -2 10 3 0 5 10 14 23 20 17 8 -3 11 -94 11 -111 1
-116 0 -139 -24z"/>
</g>
</svg>
